<?xml version="1.0" encoding="UTF-8" standalone="no"?>
<!DOCTYPE svg PUBLIC "-//W3C//DTD SVG 1.1//EN" "http://www.w3.org/Graphics/SVG/1.1/DTD/svg11.dtd">
<svg width="100%" height="100%" viewBox="0 0 900 900" version="1.1" xmlns="http://www.w3.org/2000/svg" xmlns:xlink="http://www.w3.org/1999/xlink" xml:space="preserve" xmlns:serif="http://www.serif.com/" style="fill-rule:evenodd;clip-rule:evenodd;stroke-linecap:round;stroke-linejoin:round;stroke-miterlimit:1.5;">
    <path id="bl" d="M41.984,544.162l139.482,28.029l260.751,143.201l-1.397,99.34l-398.836,-270.57Z" style="fill:#f45e95;"/>
    <path id="br" d="M847.768,573.243l-149.251,16.679l-256.217,121.903l-1.511,105.887l406.979,-244.469Z" style="fill:#f45e95;"/>
    <path id="ml" d="M460.79,50.129l-282.656,520.897l-151.492,-30.784l20.958,-223.696l413.19,-266.417Z" style="fill:#f78fb3;"/>
    <path id="m" d="M466.585,47.534l-288.525,521.404l264.94,146.051l263.133,-130.819l-239.548,-536.636" style="fill:#f89ec2;"/>
    <path id="mr" d="M469.717,48.437l399.458,306.411l-0.046,213.774l-163.619,16.61l-235.793,-536.795Z" style="fill:#f78fb3;"/>
    <g id="Edges">
        <path d="M41.621,337.816c1.144,-11.675 7.52,-22.201 17.337,-28.622c67.804,-44.349 337.134,-220.511 395.691,-258.811c6.75,-4.415 15.555,-4.072 21.941,0.854c58.994,45.511 344.239,265.564 388.195,299.474c3.591,2.77 5.698,7.046 5.706,11.581c0.055,30.351 0.269,148.362 0.345,190.235c0.017,9.187 -4.853,17.69 -12.785,22.324c-65.269,38.131 -359.657,210.116 -409.826,239.425c-4.453,2.601 -10.001,2.427 -14.282,-0.447c-48.543,-32.591 -334.991,-224.906 -399.129,-267.967c-7.844,-5.266 -12.162,-14.416 -11.241,-23.819c3.817,-38.965 13.91,-141.986 18.048,-184.227Z" style="fill:none;stroke:#4b382c;stroke-width:20.83px;"/>
        <path d="M182.602,563.919c-1.147,2.109 -1.403,4.588 -0.712,6.887c0.69,2.299 2.27,4.226 4.389,5.355c40.581,21.612 222.674,118.587 251.925,134.165c2.5,1.332 5.481,1.408 8.046,0.208c29.622,-13.865 211.864,-99.167 252.38,-118.131c4.433,-2.075 6.395,-7.312 4.417,-11.789c-26.099,-59.066 -188.023,-425.537 -228.356,-516.819c-1.704,-3.856 -5.452,-6.408 -9.664,-6.58c-4.212,-0.173 -8.156,2.065 -10.169,5.769c-47.876,88.088 -240.837,443.125 -272.256,500.935Z" style="fill:none;stroke:#4b382c;stroke-width:8.33px;"/>
        <path d="M22.077,537.311l156.19,34.583" style="fill:none;stroke:#4b382c;stroke-width:8.33px;"/>
        <path d="M440.944,818.529l1.231,-106.088" style="fill:none;stroke:#4b382c;stroke-width:8.33px;"/>
        <path d="M706.606,588.669l164.257,-21.303" style="fill:none;stroke:#4b382c;stroke-width:8.33px;"/>
    </g>
    <g id="Corner">
        <path d="M411.561,700.796c-0,-0 18.723,8.833 23.108,15.073c4.384,6.24 3.199,22.368 3.199,22.368l8.312,0.281c0,0 -1.968,-16.092 2.785,-22.021c4.998,-6.233 27.2,-15.377 27.2,-15.377l-34.313,8.545l-30.291,-8.869Z" style="fill:#4b382c;"/>
        <path d="M130.268,557.1c-0,0 32.075,10.11 43.788,4.688c11.713,-5.421 26.468,-38.917 26.468,-38.917l7.244,3.231c-0,-0 -18.934,31.803 -16.104,42.797c2.831,10.994 33.084,23.167 33.084,23.167l-4.459,6.91c-0,0 -26.352,-14.713 -39.849,-19.683c-15.305,-5.634 -51.979,-14.125 -51.979,-14.125l1.807,-8.068Z" style="fill:#4b382c;"/>
        <path d="M755.36,578.455c0,0 -32.152,8.306 -43.354,1.895c-11.203,-6.41 -23.692,-42.05 -23.692,-42.05l-7.082,2.561c-0,0 15.71,33.349 11.943,44.059c-3.767,10.709 -34.39,22.424 -34.39,22.424l4.76,5.717c-0,0 26.042,-13.031 39.917,-16.819c15.733,-4.295 53.043,-10.343 53.043,-10.343l-1.145,-7.444Z" style="fill:#4b382c;"/>
    </g>
</svg>
