<?xml version="1.0" encoding="UTF-8" standalone="no"?><!DOCTYPE svg PUBLIC "-//W3C//DTD SVG 1.1//EN" "http://www.w3.org/Graphics/SVG/1.1/DTD/svg11.dtd"><svg width="100%" height="100%" viewBox="0 0 216 216" version="1.1" xmlns="http://www.w3.org/2000/svg" xmlns:xlink="http://www.w3.org/1999/xlink" xml:space="preserve" xmlns:serif="http://www.serif.com/" style="fill-rule:evenodd;clip-rule:evenodd;stroke-linecap:round;stroke-linejoin:round;stroke-miterlimit:1.5;"><path id="Outside" d="M106.718,3.997c1.077,-0.36 2.244,-0.34 3.309,0.054c8.717,3.234 49.442,18.341 57.887,21.474c0.998,0.37 1.851,1.05 2.434,1.939c4.924,7.514 28.608,43.65 33.432,51.011c0.56,0.853 0.843,1.857 0.813,2.877c-0.254,8.629 -1.482,50.296 -1.737,58.932c-0.03,1.021 -0.373,2.008 -0.983,2.827c-5.202,6.987 -30.475,40.932 -35.672,47.912c-0.609,0.818 -1.454,1.429 -2.421,1.751c-8.351,2.781 -49.373,16.444 -58.014,19.322c-1.038,0.346 -2.16,0.34 -3.194,-0.016c-8.39,-2.886 -47.359,-16.291 -55.879,-19.221c-1.067,-0.367 -1.978,-1.086 -2.584,-2.039c-5.024,-7.905 -28.76,-45.254 -33.442,-52.621c-0.524,-0.825 -0.794,-1.785 -0.776,-2.761c0.157,-8.722 0.951,-52.906 1.116,-62.054c0.019,-1.078 0.387,-2.119 1.049,-2.97c5.391,-6.928 30.53,-39.235 35.685,-45.86c0.603,-0.776 1.423,-1.355 2.355,-1.666c8.077,-2.695 47.956,-16 56.622,-18.891Z" style="fill:#e67e22;stroke:#000;stroke-width:5px;"/><path id="Inside" d="M45.334,97.439c-1.22,-4.182 0.391,-8.675 3.993,-11.128c12.212,-8.318 39.703,-27.043 51.776,-35.266c3.52,-2.398 8.17,-2.317 11.606,0.202c11.962,8.77 39.483,28.946 51.672,37.882c3.565,2.614 5.005,7.248 3.55,11.421c-4.569,13.101 -14.335,41.11 -18.849,54.054c-1.42,4.074 -5.282,6.788 -9.596,6.744c-15.622,-0.158 -52.424,-0.53 -68.26,-0.691c-4.431,-0.044 -8.31,-2.984 -9.551,-7.237c-3.943,-13.507 -12.431,-42.587 -16.341,-55.981Z" style="fill:none;stroke:#000;stroke-width:2px;"/><g id="Edges"><path d="M107.152,41.596l1.23,-38.155" style="fill:none;stroke:#000;stroke-width:2px;stroke-linecap:butt;"/><path d="M175.767,91.366l28.872,-11.58" style="fill:none;stroke:#000;stroke-width:2px;stroke-linecap:butt;"/><path d="M149.514,166.091l15.752,26.188" style="fill:none;stroke:#000;stroke-width:2px;stroke-linecap:butt;"/><path d="M62.208,163.22l-17.164,29.072" style="fill:none;stroke:#000;stroke-width:2px;stroke-linecap:butt;"/><path d="M39.716,88.354l-28.68,-16.63" style="fill:none;stroke:#000;stroke-width:2px;stroke-linecap:butt;"/></g><g id="Exterior-Corners" serif:id="Exterior Corners"><path d="M100.518,8.627c0.162,-0.12 7.397,-3.629 6.687,2.847l1.937,0.13c-0.04,-0.228 -0.975,-6.383 6.017,-2.996l0.49,-1.774l-7.102,-2.954l-8.422,2.916l0.393,1.831Z"/><path d="M197.618,73.548c0.161,0.12 4.715,7.517 -1.692,8.698l1.314,1.376c0.208,-0.104 5.896,-2.398 4.661,5.272l1.779,-0.41l0.788,-7.651l-5.213,-7.23l-1.637,-0.055Z"/><path d="M13.145,82.472c-0.035,-0.199 -1.214,-9.488 4.266,-5.964l0.981,-1.676c-0.445,0.36 -6.727,-2.929 0.246,-8.795l-1.613,0.844l-5.812,5.038l-1.148,8.839l3.08,1.714Z"/><path d="M41.32,182.02c0.069,0.189 3.557,7.579 7.025,2.982l1.855,0.51c-0.565,-0.088 -3.046,6.453 5.927,8.032l-3.289,-0.018l-7.555,-1.446l-5.424,-7.072l1.461,-2.988Z"/><path d="M170.197,181.511c-0.069,0.189 -4.614,8.571 -8.082,3.974l-1.815,0.3c0.565,-0.089 3.004,5.951 -5.969,7.53l3.291,0.694l7.555,-1.445l5.424,-7.072l-0.404,-3.981Z"/></g><g id="Interior-Corners" serif:id="Interior Corners"><path d="M33.929,83.86c0,0 8.481,6.458 20.154,-1.977c1.559,-1.126 1.026,1.685 1.026,1.685l-8.83,4.892l-1.631,6.351l2.903,7.595l-2.878,-3.37c0,-0 -1.285,-8.392 -11.863,-13.651c-0.947,-0.471 1.119,-1.525 1.119,-1.525Z"/><path d="M39.591,87.87c2.254,1.538 3.625,3.52 4.735,5.834c-0.334,-2.687 1.315,-4.941 2.581,-6.293c-2.326,0.752 -5.028,0.932 -7.316,0.459Z" style="fill:#4b4b4b;"/><path d="M151.525,171.522c-0,-0 -3.551,-10.052 -17.938,-9.399c-1.921,0.088 0.066,-1.677 0.066,-1.677l10.067,0.458l4.846,-4.417l1.737,-7.944l0.63,3.446c-0,-0 -3.598,8.673 2.364,18.871c0.534,0.913 -1.772,0.662 -1.772,0.662Z"/><path d="M148.989,165.063c-1.041,-2.521 -1.102,-4.931 -0.76,-7.475c-1.195,2.431 -3.809,3.411 -5.61,3.848c2.358,0.646 4.717,1.978 6.37,3.627Z" style="fill:#4b4b4b;"/><path d="M181.208,90.369c0,-0 -10.304,1.364 -13.78,14.599c-0.488,1.86 -1.823,0.734 -1.823,0.734l2.882,-9.656l-3.111,-5.772l-5.979,-4.035l2.188,0.65c-0,0 6.927,5.496 18.266,2.182c1.016,-0.297 1.357,1.298 1.357,1.298Z"/><path d="M174.04,91.701c-2.699,0.4 -5.052,-0.125 -7.437,-1.072c2.069,1.747 2.387,4.522 2.375,6.374c1.197,-2.13 3.061,-4.097 5.062,-5.302Z" style="fill:#4b4b4b;"/><path d="M57.69,169.519c0,0 6.019,-7.937 1.877,-20.343c-0.609,-1.824 1.325,-0.595 1.325,-0.595l3.37,9.516l5.995,2.655l6.711,-0.759l-2.539,1.429c0,0 -8.538,-0.763 -15.468,8.804c-0.62,0.857 -1.271,-0.707 -1.271,-0.707Z"/><path d="M61.619,164.836c1.887,-1.97 4.068,-2.996 6.534,-3.71c-2.705,-0.113 -4.657,-2.11 -5.782,-3.582c0.359,2.418 0.091,5.113 -0.752,7.292Z" style="fill:#4b4b4b;"/><path d="M108.319,35.892c0,0 -1.431,10.238 9.456,18.273c1.547,1.142 -1.04,1.318 -1.04,1.318l-7.871,-6.292l-6.518,0.721l-6.077,5.402l1.518,-3.157c-0,-0 8.107,-4.072 8.755,-16.345c0.055,-1.056 1.777,0.08 1.777,0.08Z"/><path d="M106.997,42.176c-0.464,2.688 -1.698,4.759 -3.344,6.729c2.307,-1.419 5.041,-0.854 6.797,-0.263c-1.649,-1.804 -2.934,-4.189 -3.453,-6.466Z" style="fill:#4b4b4b;"/></g></svg>