<?xml version="1.0" encoding="UTF-8" standalone="no"?>
<!DOCTYPE svg PUBLIC "-//W3C//DTD SVG 1.1//EN" "http://www.w3.org/Graphics/SVG/1.1/DTD/svg11.dtd">
<svg width="100%" height="100%" viewBox="0 0 216 216" version="1.1" xmlns="http://www.w3.org/2000/svg" xmlns:xlink="http://www.w3.org/1999/xlink" xml:space="preserve" xmlns:serif="http://www.serif.com/" style="fill-rule:evenodd;clip-rule:evenodd;stroke-linecap:round;stroke-linejoin:round;stroke-miterlimit:1.5;">
    <path d="M108.495,7.188c-2.42,-1.329 -5.359,-1.293 -7.747,0.092c-14.341,8.325 -64.608,37.501 -79.13,45.93c-2.446,1.42 -3.944,4.042 -3.924,6.871c0.121,17.3 0.551,78.624 0.672,95.849c0.02,2.804 1.529,5.386 3.962,6.781c15.096,8.653 69.296,39.717 84.764,48.582c2.549,1.461 5.7,1.382 8.173,-0.204c14.469,-9.28 63.721,-40.87 77.527,-49.725c2.258,-1.449 3.625,-3.947 3.625,-6.63c0.006,-16.721 0.027,-77.277 0.033,-94.612c0.001,-2.877 -1.567,-5.526 -4.089,-6.91c-15.282,-8.387 -68.909,-37.816 -83.866,-46.024Z" style="fill:#e67e22;stroke:#000;stroke-width:5px;"/>
    <g id="Exterior-Corners" serif:id="Exterior Corners">
        <path d="M96.624,12.443c0,-0.004 5.518,-3.249 6.253,-2.518c0.836,0.493 0.526,3.928 0.47,3.853l1.938,0.129c-0.028,-0.153 -0.334,-3.662 0.956,-4.06c0.928,-0.286 3.331,0.92 5.62,2.029l-0.07,-2.739l-7.102,-2.954l-8.422,2.916l0.357,3.344Z"/>
        <path d="M96.624,12.443c0,-0.004 5.518,-3.249 6.253,-2.518c0.836,0.493 0.526,3.928 0.47,3.853l1.938,0.129c-0.028,-0.153 -0.334,-3.662 0.956,-4.06c0.928,-0.286 3.331,0.92 5.62,2.029l-0.07,-2.739l-7.102,-2.954l-8.422,2.916l0.357,3.344Z"/>
        <path d="M28.794,163.598c-0.003,0.001 -5.578,-3.144 -5.315,-4.147c0.007,-0.971 3.135,-2.425 3.097,-2.339l-0.859,-1.741c-0.119,0.101 -3.001,2.125 -3.992,1.209c-0.713,-0.659 -0.875,-3.343 -1.064,-5.88l-2.335,1.435l1.007,7.625l6.747,5.824l2.714,-1.986Z"/>
        <path d="M194.043,148.216c0.003,0.001 -0.336,6.497 -1.287,6.91c-0.768,0.594 -4.056,-0.741 -3.965,-0.764l-2.378,1.017c0.153,0.031 4.548,2.248 4.549,3.332c0.003,1.847 -3.136,2.876 -5.023,4.165l4.041,1.048l5.371,-5.506l0.405,-8.904l-1.713,-1.298Z"/>
    </g>
    <g id="Interior-Corners" serif:id="Interior Corners">
        <path d="M93.431,47.845c0,0 5.302,-0.875 5.46,-0.331c0.158,0.544 -2.047,5.393 -2.047,5.393l1.337,0.807l3.942,-7.168l1.524,-0.013l5.015,8.521l1.331,-0.99c0,-0 -3.265,-5.881 -2.929,-6.483c0.337,-0.602 5.802,0.184 5.802,0.184l0.742,-1.887c0,-0 -8.748,-0.855 -9.258,-1.648c-0.513,-0.798 -0.102,-8.571 -0.102,-8.571l-1.79,0.023c0,0 -0.392,7.87 -1.074,8.646c-0.683,0.777 -8.159,1.661 -8.159,1.661l0.206,1.856Z"/>
        <path d="M163.553,130.99c0,0 -3.304,8.604 -3.867,8.603c-0.566,-0 -4.3,-6.895 -4.3,-6.895l-1.66,0.573l4.404,7.995l-0.663,1.373l-8.89,-0.193l-1.639,1.763c0,-0 9.325,-0.12 9.716,0.448c0.391,0.569 -4.341,7.142 -4.341,7.142l1.627,0.925c-0,0 5.348,-8.327 6.284,-8.433c0.942,-0.107 8.626,3.313 8.626,3.313l0.827,-1.729c-0,0 -7.466,-2.895 -8.031,-4.017c-0.465,-0.923 3.068,-8.661 3.068,-8.661l-1.161,-2.207Z"/>
        <path d="M60.768,151.274c-0,-0 -6.699,-7.716 -6.402,-8.194c0.298,-0.482 10.245,-0.225 10.245,-0.225l-1.738,-1.644l-8.621,0.058l-1.315,-1.8l6.136,-10.411l-1.749,-0.314c-0,-0 -4.987,8.937 -5.677,8.971c-0.689,0.034 -3.333,-7.503 -3.333,-7.503l-1.35,1.632c0,-0 3.25,8.206 2.795,9.238c-0.456,1.031 -7.489,4.977 -7.489,4.977l0.756,1.519c0,-0 7.124,-4.208 8.378,-4.145c1.32,0.067 6.813,7.348 6.813,7.348l2.551,0.493Z"/>
    </g>
    <g id="Edge">
        <path d="M104.954,47.057c-0.433,-0.752 -1.242,-1.208 -2.11,-1.19c-0.867,0.018 -1.656,0.508 -2.058,1.277c-8.282,15.876 -39.768,76.229 -47.622,91.284c-0.381,0.731 -0.356,1.608 0.066,2.316c0.422,0.709 1.181,1.148 2.006,1.16c16.811,0.256 83.648,1.273 101.1,1.538c0.855,0.013 1.651,-0.434 2.085,-1.171c0.434,-0.738 0.438,-1.651 0.011,-2.393c-8.992,-15.607 -44.344,-76.967 -53.478,-92.821Z" style="fill:none;stroke:#000;stroke-width:2px;"/>
        <path d="M51.565,141.641c0,0 -25.596,-68.195 -30.959,-82.484c-0.237,-0.632 -0.173,-1.337 0.174,-1.915c0.347,-0.578 0.939,-0.967 1.608,-1.055c14.43,-1.9 80.538,-10.604 80.538,-10.604l1.779,-40.755l-1.779,40.755c-0,-0 73.765,8.949 89.079,10.807c0.658,0.079 1.241,0.461 1.578,1.033c0.336,0.571 0.386,1.266 0.137,1.88c-5.82,14.306 -33.882,83.281 -33.882,83.281l36.811,16.254l-36.811,-16.254c-0,-0 -37.562,53.749 -46.629,66.724c-0.467,0.668 -1.217,1.081 -2.031,1.119c-0.813,0.038 -1.598,-0.304 -2.125,-0.926c-10.784,-12.73 -57.488,-67.86 -57.488,-67.86Z" style="fill:none;stroke:#000;stroke-width:2px;"/>
        <path d="M18.963,160.39l32.602,-18.749" style="fill:none;stroke:#000;stroke-width:2px;"/>
    </g>
</svg>
