<?xml version="1.0" encoding="UTF-8" standalone="no"?>
<!DOCTYPE svg PUBLIC "-//W3C//DTD SVG 1.1//EN" "http://www.w3.org/Graphics/SVG/1.1/DTD/svg11.dtd">
<svg width="100%" height="100%" viewBox="0 0 900 900" version="1.1" xmlns="http://www.w3.org/2000/svg" xmlns:xlink="http://www.w3.org/1999/xlink" xml:space="preserve" xmlns:serif="http://www.serif.com/" style="fill-rule:evenodd;clip-rule:evenodd;stroke-linecap:round;stroke-linejoin:round;stroke-miterlimit:1.5;">
    <path id="Outer-Edge" serif:id="Outer Edge" d="M114.819,328.835c1.177,-7.068 4.625,-13.561 9.822,-18.494c45.052,-42.774 266.487,-253.008 310.87,-295.147c4.382,-4.16 11.222,-4.264 15.728,-0.239c46.078,41.153 277.977,248.267 329.092,293.919c6.399,5.715 10.318,13.699 10.926,22.256c3.907,55.033 18.789,264.624 23.56,331.821c0.904,12.737 -5.627,24.851 -16.764,31.095c-64.275,36.036 -279.574,156.743 -340.261,190.767c-9.973,5.592 -22.132,5.617 -32.128,0.067c-61.375,-34.075 -280.813,-155.908 -348.964,-193.746c-12.196,-6.771 -18.811,-20.484 -16.519,-34.243c11.631,-69.835 46.308,-278.04 54.638,-328.056Z" style="fill:#ffa9a9;stroke:#4B382C;stroke-width:20.83px;"/>
    <path id="Inner-Edge" serif:id="Inner Edge" d="M455.85,30.639c-2.561,-4.641 -7.424,-7.541 -12.723,-7.589c-5.3,-0.048 -10.215,2.763 -12.859,7.357c-58.192,101.071 -294.709,511.872 -358.173,622.102c-3.26,5.661 -3.263,12.629 -0.008,18.293c3.255,5.664 9.276,9.169 15.809,9.204c126.574,0.662 596.124,3.119 705.519,3.691c4.763,0.025 9.183,-2.476 11.616,-6.572c2.432,-4.096 2.513,-9.174 0.211,-13.344c-54.235,-98.281 -291.844,-528.859 -349.392,-633.142Z" style="fill:none;stroke:#4B382C;stroke-width:8.33px;"/>
</svg>
